<?xml version="1.0" encoding="iso-8859-1"?>
<!-- Generator: Adobe Illustrator 16.0.0, SVG Export Plug-In . SVG Version: 6.00 Build 0)  -->
<!DOCTYPE svg PUBLIC "-//W3C//DTD SVG 1.1//EN" "http://www.w3.org/Graphics/SVG/1.1/DTD/svg11.dtd">
<svg version="1.1" id="Capa_1" xmlns="http://www.w3.org/2000/svg" xmlns:xlink="http://www.w3.org/1999/xlink" x="0px" y="0px"
	 width="134.229px" height="134.229px" viewBox="0 0 134.229 134.229" style="enable-background:new 0 0 134.229 134.229;"
	 xml:space="preserve">
<g>
	<g>
		<path d="M131.249,110.53L119.606,5.8c-0.347-3.185-3.55-5.8-7.13-5.8h-90.72c-3.568,0-6.777,2.615-7.127,5.8L2.987,110.53
			c0,0.129-0.067,0.232-0.067,0.359v11.667c0,6.437,5.237,11.673,11.673,11.673h105.044c6.437,0,11.673-5.236,11.673-11.673v-11.667
			C131.31,110.762,131.249,110.652,131.249,110.53z M46.579,39.446l12.906,14.272l29.426-24.523l7.989,9.578l-38.624,32.19
			l-20.95-23.136L46.579,39.446z M125.471,122.556c0,3.222-2.618,5.84-5.834,5.84H14.599c-3.212,0-5.836-2.618-5.836-5.84v-11.667
			c0-3.221,2.625-5.839,5.836-5.839h105.044c3.209,0,5.839,2.618,5.839,5.839v11.667H125.471z"/>
		<path d="M21.346,112.528c2.317,0,4.195,1.875,4.195,4.189c0,2.319-1.878,4.201-4.195,4.201c-2.32,0-4.198-1.882-4.198-4.201
			C17.147,114.403,19.026,112.528,21.346,112.528z"/>
	</g>
</g>
<g>
</g>
<g>
</g>
<g>
</g>
<g>
</g>
<g>
</g>
<g>
</g>
<g>
</g>
<g>
</g>
<g>
</g>
<g>
</g>
<g>
</g>
<g>
</g>
<g>
</g>
<g>
</g>
<g>
</g>
</svg>
